<?xml version="1.0" encoding="UTF-8"?>
<svg id="Layer_1" data-name="Layer 1" xmlns="http://www.w3.org/2000/svg" viewBox="0 0 149.99 144.47">
  <defs>
    <style>
      .cls-1 {
        fill: #faa327;
      }

      .cls-2 {
        fill: #f36e2c;
      }

      .cls-3 {
        fill: #e2452a;
      }
    </style>
  </defs>
  <g id="LOGO">
    <path class="cls-3" d="m147.49,57.18l-.21-.54L126.87,3.36c-.42-1.04-1.15-1.93-2.1-2.53-1.95-1.21-4.44-1.07-6.25.34-.87.71-1.5,1.67-1.81,2.75l-13.78,42.17h-55.82L33.32,3.91c-.3-1.09-.93-2.05-1.81-2.76-1.81-1.41-4.3-1.54-6.25-.34-.95.6-1.68,1.49-2.1,2.53L2.71,56.61l-.2.54c-6.04,15.77-.91,33.64,12.57,43.81l.07.05.19.13,31.1,23.29,15.39,11.64,9.37,7.08c2.25,1.71,5.37,1.71,7.62,0l9.37-7.08,15.39-11.64,31.29-23.43.08-.06c13.45-10.17,18.57-28.01,12.56-43.77Z"/>
    <path class="cls-2" d="m147.49,57.18l-.21-.54c-9.95,2.04-19.32,6.26-27.45,12.34l-44.84,33.9c15.27,11.55,28.56,21.59,28.56,21.59l31.29-23.43.08-.06c13.47-10.17,18.6-28.03,12.57-43.8Z"/>
    <path class="cls-1" d="m46.44,124.47l15.39,11.64,9.37,7.08c2.25,1.71,5.37,1.71,7.62,0l9.37-7.08,15.39-11.64s-13.31-10.07-28.58-21.59c-15.27,11.52-28.56,21.59-28.56,21.59Z"/>
    <path class="cls-2" d="m30.15,68.98c-8.12-6.1-17.5-10.32-27.44-12.37l-.2.54c-6.04,15.77-.91,33.64,12.57,43.81l.07.05.19.13,31.1,23.29s13.28-10.04,28.56-21.59l-44.84-33.87Z"/>
  </g>
</svg>