<?xml version="1.0" encoding="UTF-8"?>
<svg xmlns="http://www.w3.org/2000/svg" viewBox="0 0 3000 3000">
  <defs>
    <style>
      .cls-1 {
        fill: #f9d7d7;
      }

      .cls-2 {
        fill: #65ccf0;
      }

      .cls-3 {
        fill: #e64947;
      }

      .cls-4 {
        fill: #fff;
      }

      .cls-5 {
        fill: #8be6f2;
      }

      .cls-6 {
        fill: #e06d6f;
      }

      .cls-7 {
        fill: #529fc6;
      }

      .cls-8 {
        fill: #4e8caf;
      }

      .cls-9 {
        mix-blend-mode: soft-light;
      }

      .cls-10 {
        isolation: isolate;
      }
    </style>
  </defs>
  <g class="cls-10">
    <g id="Layer_1" data-name="Layer 1">
      <g>
        <rect x="679.21" y="2727.52" width="1680.71" height="246.7" rx="119.17" ry="119.17"/>
        <path class="cls-3" d="m2062.55,470.97c213.08,121.91,277.44,348.17,253.77,427.3-5.15,17.23-26.44,23.53-40.39,12.15-82.99-67.53-195.33-97.1-264.37-80.2l-780.52-298.76-219.41-83.99C1068.25,240.33,1589.63,13.99,1927.09,26.26c15.17.55,22.39,18.45,10.79,28.24-74.56,63.04-129.64,125.93-144.82,188.52,192.31-50.3,471.93,70.03,529.66,144.08,8.87,11.38,2.39,27.91-11.75,30.71-39.4,7.84-217.09,17.38-248.43,53.17Z"/>
        <g class="cls-9">
          <path class="cls-1" d="m1927.09,26.26s-396.67,147.91-480.29,321.3c-33.03,68.49-120.26,131.96-215.77,183.92l-219.41-83.99C1068.25,240.33,1589.63,13.99,1927.09,26.26Z"/>
        </g>
        <path class="cls-8" d="m922.06,2191.75l-24.63,21.8-19.7,17.45-64.58,57.15c-4.64,20.25-5.56,48.35-35.53,70.51,3.65,3.54,21.54,90.17-10.94,92.79-36.75,2.98-42.86-84.98-42.86-84.98,0,0-35.49,113.41-79.05,93.49-50.26-22.98,13.55-131.67,14.99-134.14-48.75,33.76-82.18,91.76-111.01,51.66-36.38-50.55,87.82-130.38,87.82-130.38,0,0-47.76-7.18-73.53-20.07s-21.83-86.79,14.99-75.74c36.82,11.05,123.13,7.33,123.13,7.33l118.97-76.26,10.31-6.63,14.32-9.17,77.32,125.19Z"/>
        <path class="cls-8" d="m1267.66,2736.32c-27.61,0-54.07-15.59-66.64-42.21-89.04-188.54-45.56-337.83,6.59-429.88,54.51-96.2,127.85-148.49,136.03-154.14l83.63,121.23.34-.24c-.56.4-56.08,40.14-94.34,110.2-48.4,88.61-48.08,186.15.92,289.92,17.37,36.78,1.63,80.67-35.14,98.04-10.16,4.8-20.86,7.07-31.4,7.07Z"/>
        <path class="cls-3" d="m2663.63,1533.65c-53.67-47.55-40.13-174.75,2.25-245.18,2.23-3.7,7.54-3.95,10.13-.5,13.24,17.64,23.1,37.56,27.67,57.47,1.17,5.08,7.69,6.5,10.84,2.35,85.8-113.23,67.02-192.26,80.26-284.51.79-5.52,7.96-7.2,11.12-2.61,86.67,126.22,145.43,254.76,105.92,339.33-2.52,5.4,3.26,10.76,8.49,7.92,22.35-12.11,46.93-18.37,72.96-20.82,4.23-.4,7.5,3.47,6.56,7.61-35.15,154.93-159.96,220.61-282.19,178.79l-52.96-39.09c-.37-.22-.73-.47-1.05-.76Z"/>
        <path class="cls-3" d="m2186.93,1364.11l67,37.55c17.05,9.56,23.12,31.1,13.56,48.16l-37.55,67c-2.58,4.6-10.01,11.3-10.01,11.3l-44.82-168.1s8.06,1.98,11.83,4.09Z"/>
        <path class="cls-3" d="m2118.23,1126.29l69.73,39.08c17.75,9.95,24.06,32.37,14.11,50.12l-39.08,69.73c-2.68,4.79-10.42,11.76-10.42,11.76l-46.65-174.95s8.39,2.06,12.31,4.26Z"/>
        <path class="cls-3" d="m2046.83,873.23l75.78,35.23c19.29,8.97,27.65,31.84,18.68,51.13l-35.23,75.78c-2.42,5.21-16.79,22.12-16.79,22.12l-55.62-187.73s8.91,1.49,13.17,3.47Z"/>
        <path class="cls-2" d="m2804.69,1378.09v.07c-.33,3.28-.7,6.59-1.1,9.87-.04.29-.07.59-.11.88-4.38,51.4-13.62,100.48-26.84,147.21,0,.04,0,.07-.04.11-.4,1.33-.81,2.76-1.21,4.27-.04.29-.11.55-.22.81-2.72,9.46-5.63,18.82-8.73,28.09-147.87,448.22-658.61,673.52-716.12,702.06-17.27,8.58-35.09,17.09-53.43,25.48-43.3,19.77-89.66,38.96-139.33,57.29-87.04,32.18-184.25,61.71-293.05,87.34-90.43,21.32-180.46,24.23-265.92,10.42-49.56-7.99-97.61-21.65-143.27-40.54-61.86-25.66-119.41-61.01-170.52-105.23-12.92-11.16-25.44-22.9-37.52-35.2-2.06-2.1-4.09-4.23-6.11-6.33-10.71-11.23-21.02-22.87-30.89-34.91-4.38-5.34-8.69-10.75-12.85-16.24-7.99-10.35-15.61-20.95-22.9-31.85-16.94-25.11-32.14-51.66-45.44-79.53-3.13-6.52-6.15-13.15-8.98-19.81-11.34-25.88-20.99-52.87-28.9-80.78l-4.82-17.12s-.04-.11-.07-.15l-26.55-93.93-10.05-35.64c-67.31,19.96-142.09,38.11-225.19,53.61-88.63,16.53-180.05-11.64-242.76-76.48-119.56-123.64-203.29-278.8-246.88-433.12C-38.29,1139.76,1.55,883.04,174.6,781.53c171.73-128.06,512.39-253.18,838.81-340.07,154.06-41.05,304.91-73.57,433.38-93.89,15.13-2.39,29.93-4.6,44.41-6.66,9.98-1.44,19.99-2.32,30.01-2.65.26,0,.48-.04.74-.04,1.47-.04,2.98-.07,4.46-.11h.37c62.82-1.22,124.71,17.89,176.11,55.16,93.01,67.45,155.49,149.86,209.77,235.61,43.34,68.49,77.65,137.49,104.46,200.12,5.93,13.96,11.52,27.58,16.75,40.8,32.14,81.52,50.74,148.31,59.35,183,4.12,16.53,6,25.77,6,25.77l12.78,45.25,47.09,166.61,19.99,70.7,33.58,118.78,12.22,43.26,11.64,41.2c2.17,3.35,4.49,6.59,6.96,9.72.81,1.03,1.66,2.06,2.5,3.06.81.96,1.66,1.91,2.5,2.87.07.11.15.18.22.26.81.92,1.66,1.84,2.5,2.72l.11.11c.88.92,1.8,1.84,2.69,2.72.96.96,1.91,1.88,2.87,2.76,1.51,1.44,3.06,2.8,4.64,4.09,2.98,2.58,6.08,4.97,9.28,7.25,1.03.74,2.06,1.44,3.09,2.13.18.11.33.22.48.33,1.18.81,2.39,1.58,3.61,2.32,2.65,1.69,5.34,3.28,8.1,4.79,12.26,6.89,25.63,13.07,39.95,17.34,12.34,3.72,25.33,6,38.85,6.15,11.86.07,23.53-.29,34.98-1.14,27.73-2.03,54.2-6.63,79.38-13.22,10.79-2.8,21.36-6,31.67-9.5,11.16-3.79,22.06-7.99,32.62-12.45,23.42-9.94,45.4-21.39,65.87-33.76,21.13-12.74,40.69-26.44,58.58-40.47,86.93-67.82,135.32-142.24,136.68-144.34l.04-.04Z"/>
        <path class="cls-5" d="m1446.81,347.54C356.38,778.83,53.98,850.16,35,1398.95l-.11-.22C-38.28,1139.74,1.56,883.02,174.62,781.51c252.81-188.52,871.61-370.64,1272.18-433.97Z"/>
        <g>
          <path class="cls-7" d="m1521.2,338.25s1.8-.15,5.19-.15c-1.73.04-3.46.07-5.19.15Z"/>
          <path class="cls-7" d="m2364.87,1633c-63.85,10.24-188.6,43.98-219.97-5.58-59.96-94.61-97.05-551.55-294.2-936.07-42.64-83.18-164.25-299.54-323.94-353.25,62.82-1.22,124.71,17.89,176.11,55.16,93.01,67.45,155.49,149.86,209.77,235.61,140.62,222.28,186.57,449.69,186.57,449.69l137.3,485.81c2.17,3.35,4.49,6.59,6.96,9.72.81,1.03,1.62,2.06,2.5,3.06.81.99,1.62,1.95,2.5,2.87.07.11.15.18.22.26.81.92,1.66,1.84,2.5,2.72l.11.11c.88.96,1.77,1.84,2.69,2.72.96.96,1.91,1.88,2.87,2.76,1.51,1.44,3.06,2.8,4.64,4.09,2.98,2.58,6.08,4.97,9.28,7.25,1.03.74,2.06,1.44,3.09,2.13.18.11.33.22.48.33,1.18.81,2.39,1.58,3.61,2.32,2.65,1.69,5.34,3.28,8.1,4.79,22.83,12.56,49.82,20.25,78.8,23.49Z"/>
        </g>
        <path class="cls-7" d="m2804.69,1378.09v.07c-.33,3.28-.7,6.59-1.1,9.87-.04.29-.07.59-.11.88-4.38,51.4-13.62,100.48-26.84,147.21,0,.04,0,.07-.04.11-.4,1.33-.81,2.76-1.21,4.27-.04.29-.11.55-.22.81-2.72,9.46-5.63,18.82-8.73,28.09-147.87,448.22-658.61,673.52-716.12,702.06-17.27,8.58-35.09,17.09-53.43,25.48-43.3,19.77-89.66,38.96-139.33,57.29-87.04,32.18-184.25,61.71-293.05,87.34-90.43,21.32-180.46,24.23-265.92,10.42-49.56-7.99-97.61-21.65-143.27-40.54-61.86-25.66-119.41-61.01-170.52-105.23,54.16,29.31,114.88,51.92,178.43,67.34,47.87,11.63,97.32,19.22,146.69,22.53,88.55,6,176.96-1.62,255.87-23.9,100.63-25.11,194.56-53.61,282.01-85.06,50.19-18.04,98.27-37.04,144.23-56.92,401.6-173.72,643.22-414.45,753.64-663.28,27.84-62.74,47.35-126,58.99-188.82l.04-.04Z"/>
        <circle class="cls-8" cx="320.12" cy="906.35" r="36.25"/>
        <circle class="cls-8" cx="135.8" cy="952.43" r="36.25"/>
        <circle cx="1521.21" cy="880.08" r="90.63"/>
        <circle cx="1219.02" cy="869.48" r="90.63"/>
        <path d="m1270.18,1897.54c-24.45,9.76-50.22,17.08-76.88,21.61-106.48,18.15-227.37-7.95-335.99-100.26,123.28-45.84,216.1-98.31,286.02-151.37,54.05-40.98,94.37-82.26,124.49-121.07,43.93-56.59,66.13-107.88,77.32-145,7.62-25.22,40.36-31.67,56.96-11.27,35.5,43.71,58.69,88.07,71.36,131.63,4.16,14.29,7.18,28.46,9.13,42.53,20.58,146.88-75.04,278.4-212.42,333.19Z"/>
        <path class="cls-6" d="m1270.18,1897.54c-24.45,9.76-50.22,17.08-76.88,21.61-8.32-39.07-8.73-80.49.11-122.1,29.53-138.81,152.58-233.7,289.19-232.71,20.58,146.88-75.04,278.4-212.42,333.19Z"/>
        <path class="cls-8" d="m1875.78,1849.32c-27.39,0-53.69-15.35-66.38-41.67-17.67-36.63-2.29-80.65,34.34-98.32,210.71-101.61,362.07-206.62,462.72-321.05,26.86-30.54,92.87-38.98,123.41-12.12,30.54,26.86,55.17,101.05,29.46,132.55-138.23,169.37-494.94,312.57-583.55,340.61Z"/>
        <path class="cls-8" d="m2343.16,1424.45c-19.41,0-36.91-13.43-41.3-33.17l-22.09-99.42c-5.07-22.83,9.32-45.45,32.15-50.52,22.82-5.08,45.45,9.32,50.52,32.15l22.09,99.42c5.07,22.83-9.32,45.45-32.15,50.52-3.09.69-6.18,1.02-9.22,1.02Z"/>
        <path class="cls-8" d="m2382.55,1421.53c-11.18,0-22.33-4.4-30.65-13.12-16.14-16.93-15.5-43.73,1.43-59.87,35.59-33.94,58.16-69.27,73.18-114.58,7.36-22.2,31.33-34.21,53.52-26.87,22.2,7.36,34.23,31.32,26.87,53.52-19.35,58.38-49.58,105.79-95.13,149.22-8.2,7.82-18.71,11.7-29.21,11.7Z"/>
        <path class="cls-8" d="m2419.64,1463.49c-14.69,0-28.96-7.65-36.78-21.31-11.62-20.29-4.59-46.17,15.7-57.79l142.83-81.79c20.29-11.63,46.16-4.6,57.79,15.7,11.62,20.29,4.59,46.17-15.7,57.79l-142.83,81.79c-6.63,3.8-13.87,5.61-21,5.61Z"/>
        <path class="cls-8" d="m2479.42,1503.88c-7.52,0-14.88-.29-22.49-.76-21.31-1.32-37.51-19.67-36.19-40.98,1.33-21.32,19.7-37.52,40.99-36.19,22.53,1.39,42.3,1.5,91.93-10.05,20.78-4.85,41.58,8.09,46.42,28.89,4.84,20.8-8.09,41.58-28.89,46.42-41.43,9.64-67.42,12.68-91.77,12.68Z"/>
        <path class="cls-8" d="m2168.46,2679.63c-7.72,0-15.57-1.23-23.3-3.8-111.42-37.14-193.63-104.59-244.36-200.47-35.51-67.12-54.07-145.51-55.18-232.98-.51-40.67,32.04-74.05,72.71-74.57.31,0,.63,0,.95,0,40.24,0,73.11,32.36,73.62,72.71,1.93,152.81,68.83,252.26,198.84,295.59,38.58,12.86,59.44,54.57,46.57,93.15-10.29,30.86-39.02,50.38-69.85,50.38Z"/>
        <path class="cls-8" d="m1233.11,2578.07s-207.68-78.95-316.83,20.15c-86.73,78.74-52.97,220.8-32.17,215.78l411.01-83.08c22.73-5.48,32.18-32.62,17.76-51.02l-79.76-101.83Z"/>
        <path class="cls-8" d="m2102.57,2580.06c-41.13-26.17-106.32-15.53-143.48-23.45-108.08-23.03-264.59,76.9-201.36,263.02,6.04,17.79,24.94,27.72,42.92,22.3,80.33-24.23,298.99-94.79,411.7-176.52,24.95-18.09,16.56-57.28-13.53-63.96l-96.25-21.38Z"/>
        <ellipse class="cls-8" cx="2386.81" cy="1431.73" rx="104.21" ry="109.81"/>
        <path class="cls-4" d="m1304.47,1568.39v90.81c0,23.12-18.71,41.83-41.83,41.83h-90.81c-6.24,0-12.17-1.35-17.45-3.79,64.03-48.55,111.79-97.44,147.48-143.42,1.7,4.54,2.62,9.46,2.62,14.57Z"/>
        <path class="cls-3" d="m2391.39,1641.54l38.44-54.84c9.79-13.96,29.01-17.34,42.97-7.56l54.84,38.44c3.77,2.64,8.93,9.68,8.93,9.68-32.57,26.49-116.29,38.57-149.77,24.19,0,0,2.43-6.82,4.59-9.91Z"/>
        <path class="cls-3" d="m2572.03,1601.77l11.08-50.14c2.82-12.76,15.44-20.81,28.2-17.99l50.14,11.08c3.44.76,9.17,4.22,9.17,4.22.39,30.47-67.87,62.88-98.92,61.18,0,0-.29-5.55.33-8.36Z"/>
        <path d="m1376.64,1427.51c-56.78,115.69-135.32,209.18-240.03,285.84-98.86,72.35-222.62,130.68-376.86,177.03l-10.05-35.64c305.43-91.65,488.39-228.51,593.88-443.43l33.06,16.2Z"/>
      </g>
    </g>
  </g>
</svg>