<?xml version="1.0" encoding="UTF-8"?><svg xmlns="http://www.w3.org/2000/svg" viewBox="0 0 3000 3000"><defs><style>.cls-1{fill:#f9d7d7;}.cls-2{fill:#65ccf0;}.cls-3{fill:#e64947;}.cls-4{fill:#fff;}.cls-5{fill:#6b6c8a;}.cls-6{fill:#7c7ea0;}.cls-7{fill:#303236;}.cls-8{fill:#529fc6;}.cls-9{fill:#5d5e78;}.cls-10{fill:#4e8caf;}.cls-11{stroke:#000;stroke-width:37.26px;}.cls-11,.cls-12,.cls-13{fill:none;stroke-miterlimit:10;}.cls-14{mix-blend-mode:soft-light;}.cls-12{stroke:#5d5e78;stroke-width:74.53px;}.cls-12,.cls-13{stroke-linecap:round;}.cls-15{isolation:isolate;}.cls-13{stroke:#7c7ea0;stroke-width:26.08px;}.cls-16{fill:#a5ccf2;mix-blend-mode:hard-light;opacity:.8;}</style></defs><g class="cls-15"><g id="Layer_1"><g><rect x="562.98" y="2531.49" width="1822.17" height="249.66" rx="124.83" ry="124.83"/><path class="cls-10" d="m2239.89,2437.49c-22.67,0-45.04-10.43-59.48-30.12-84.31-114.97-197.84-73.72-210.52-68.65l.68-.28-57.7-135.6c6.04-2.57,61.1-25.05,134.69-22.13,70.17,2.77,170.79,29.21,251.68,139.52,24.06,32.81,16.97,78.92-15.84,102.98-13.13,9.63-28.39,14.27-43.51,14.27Z"/><path class="cls-10" d="m1810.45,1790.9l22.13,4.2,22.9,4.07c15.35,2.61,30.73,5.13,46.16,7.46,30.85,4.7,61.8,8.84,92.74,12.4,61.87,7.08,123.75,12.04,184.95,13.82,30.61,1.01,61.01,1.02,91.06.2,30.08-.73,59.76-2.63,88.75-5.69,14.58-1.35,28.74-3.51,42.93-5.43l20.85-3.62,5.2-.89,5.07-1.09,10.12-2.17c26.82-5.9,52.32-13.3,74.93-22.43,57.38-23.17,122.68,4.56,145.85,61.94,23.17,57.38-4.56,122.68-61.94,145.85-3.95,1.6-7.94,2.95-11.95,4.07l-2.74.74c-38.48,10.46-75.88,16.46-112.41,20.21l-13.67,1.31-6.83.64-6.75.4-26.96,1.54c-17.77.44-35.57,1.02-53.04.68-35.06-.29-69.55-2.04-103.55-5.05-34.02-2.91-67.65-6.77-100.89-11.64-66.55-9.51-131.78-22.28-196.25-37.13-32.23-7.45-64.24-15.47-96.11-24.08-15.94-4.28-31.84-8.76-47.73-13.35l-23.87-7.08-24.49-7.6c-36.14-11.21-56.34-49.59-45.13-85.73,10.43-33.63,44.4-53.46,78.19-47.02l2.51.48Z"/><path class="cls-3" d="m399.45,2106.1c46.06-64.97-.68-199.14-64.28-264.63-3.34-3.44-9.15-2.37-11.08,2.02-9.87,22.41-15.51,46.45-15.43,69.14.02,5.79-6.68,8.97-11.13,5.27-121.36-100.83-160.26-171.92-197.86-268.36-2.25-5.77-10.43-5.78-12.68-.02-61.91,158.38-53.77,293.11,10.3,374.63,4.09,5.2-.81,12.46-7.19,10.71-27.23-7.46-55.39-8.03-84.16-4.12-4.67.63-7.31,5.68-5.17,9.89,78.77,155.28,219.76,170.58,322.26,137.35.98-.32,1.88-.86,2.63-1.57l72.86-69.22c.35-.33.67-.69.95-1.09Z"/><path class="cls-2" d="m2177.67,1916.57c.04,48.59-5.55,96.32-16.28,142.35-.6,2.65-1.23,5.29-1.86,7.9-3.69,15.13-7.97,30.07-12.78,44.83-70.17,214.71-253.76,384.41-491.84,425.55l-199.66,34.5-47.59,8.2c-14.76,2.53-29.44,4.55-44.08,6-326.2,33.24-627.07-191.42-683.71-519.45l-113.5-657.4c-1.45-8.46-2.72-16.92-3.8-25.34-.97-7.27-1.79-14.53-2.46-21.8-31.56-325.01,192.73-624.2,519.71-680.65l247.32-42.7c72.59-12.52,144.47-12.11,213.18-.34,255.63,43.64,467.91,243.7,514.53,513.82l56.75,328.51,18.37,106.42,38.42,222.42c6.22,36,9.28,71.84,9.28,107.17Z"/><path class="cls-3" d="m1397.68,377.68l-274.67,227.72-565.88,469.14c-69.72,3.61-133.7,51.95-192.69,138.92-9.91,14.64-31.71,14.72-41.44-.04-44.57-67.71-86.41-282.57,59.7-449.47-39.57-24.82-151.1-7.71-190.34-3.95-14.12,1.34-24.85-12.33-19.75-25.56,33.39-85.97,262.41-278.1,457.52-285.14-31.97-54.55-101.54-98.15-189.48-136.38-13.68-5.96-11.96-24.82,2.16-29.62h.07c313.94-106.83,843.01-84.48,954.8,94.39Z"/><g class="cls-14"><path class="cls-1" d="m1397.68,377.68l-274.67,227.72c-54.74-9.76-95.28-34.92-111.27-82.39-80.45-238.86-562.04-239.71-568.86-239.71,313.94-106.83,843.01-84.48,954.8,94.39Z"/></g><path class="cls-3" d="m522.39,1238.45l-65.2,92.96c-16.6,23.67-10.88,56.26,12.79,72.86l92.96,65.2c6.39,4.48,20.59,8.64,20.59,8.64l-47.99-252.7s-9.47,7.81-13.14,13.03Z"/><path class="cls-3" d="m598.86,1556.78l-61.47,87.64c-15.65,22.31-10.26,53.03,12.05,68.68l87.64,61.47c6.02,4.22,19.41,8.15,19.41,8.15l-45.24-238.22s-8.93,7.36-12.39,12.29Z"/><path class="cls-3" d="m663.61,1852.73l-59.92,85.43c-15.25,21.75-10,51.7,11.75,66.95l85.43,59.92c5.87,4.12,18.92,7.94,18.92,7.94l-44.1-232.23s-8.71,7.18-12.07,11.98Z"/><path class="cls-2" d="m2548.85,1160.2c-12.11,89.43-69.09,166.31-150.36,205.51-105.23,50.75-200.63,88.09-286.89,114.85-536.59,166.27-719.96-79.07-719.96-79.07l-220.38-10.47-611.15-29.1-5.11-.22c-34.54-166.86-63.2-334.81-4.25-519.19,22.99-71.92,73.15-131.95,139.63-167.68,44.49-23.92,93.53-48.59,145.92-73.41,364.32-172.64,890.33-353.44,1176.59-351.47,171.45-17.77,331.49,114.88,433.11,312.41,33.69,65.43,60.96,137.99,80.08,214.52,30.48,121.81,40.36,253.76,22.77,383.33Z"/><path class="cls-16" d="m2548.85,1160.2c-12.11,89.43-69.09,166.31-150.36,205.51-105.23,50.75-200.63,88.09-286.89,114.85l18.37,106.42,38.42,222.42c6.22,36,9.28,71.84,9.28,107.17.04,48.59-5.55,96.32-16.28,142.35-67.48,19-138.66,29.14-212.21,29.14-403.3,0-735.31-305.07-777.91-697.05-3.05-28.06-4.62-56.6-4.62-85.48,0-282.31,149.5-529.73,373.68-667.31,118.98-73.07,258.98-115.22,408.85-115.22,228.39,0,433.89,97.82,576.91,253.87,30.48,121.81,40.36,253.76,22.77,383.33Z"/><path class="cls-8" d="m1781.6,2384.41l-199.66,34.51-47.59,8.2c-14.76,2.53-29.44,4.55-44.12,6-326.17,33.24-627.03-191.42-683.67-519.45,0,0-119.06-697.27-119.76-704.54,0,0-68.3-335.03-9.35-519.41,1.01-3.17,2.05-6.3,3.21-9.39-61.63,36.18-108.06,93.79-129.9,162.17-58.95,184.38-30.29,352.32,4.21,519.19l124.91,704.76c4.36,25.25,10.18,49.88,17.33,73.84l-.08-.06c-48.44,55.89-306.07,5.97-457.96-141.55-54.3-5.33,275.94,622.42,1009.69,588.37,37.63,3.06,75.97,2.79,114.68-1.15,14.68-1.45,29.36-3.47,44.12-6l47.59-8.2,199.66-34.51c189.22-32.72,344.05-146.63,434.82-299.82-84.33,74.04-189.41,126.55-308.13,147.04Z"/><path class="cls-3" d="m679.06,2193.95l-37.68-56.66c-9.59-14.42-29.03-18.33-43.45-8.74l-56.66,37.68c-3.89,2.59-9.31,9.61-9.31,9.61,31.14,20.92,117.16,42.06,151.51,28.29,0,0-2.29-6.99-4.41-10.17Z"/><path class="cls-3" d="m488.69,2148.55l-22.69-53.18c-5.78-13.54-21.41-19.82-34.95-14.04l-53.18,22.69c-3.65,1.56-9.27,6.58-9.27,6.58,22.77,22.31,91.35,53.31,122.19,47.13,0,0-.83-6.2-2.11-9.18Z"/><circle class="cls-10" cx="1968.9" cy="449.3" r="36.27"/><circle class="cls-10" cx="2162.67" cy="430.67" r="36.27"/><circle cx="1145.65" cy="903.07" r="90.68"/><circle cx="1448.13" cy="908.09" r="90.68"/><path class="cls-10" d="m1367.93,2661.07c-22.67,0-45.04-10.43-59.48-30.12-84.31-114.97-197.85-73.73-210.52-68.65l.68-.28c-99.65,10.45-110.83-101.33-57.7-135.6,6.04-2.57,61.11-25.01,134.69-22.13,70.17,2.77,170.79,29.21,251.68,139.52,24.06,32.81,16.97,78.92-15.84,102.98-13.13,9.63-28.39,14.27-43.51,14.27Z"/><path class="cls-4" d="m1562.78,1532.05l56.83,77.32c14.47,19.68,42.11,23.91,61.79,9.44l77.32-56.83c5.31-3.9,9.52-8.77,12.48-14.15-84.9-1.26-156.16-13.01-215.31-29.82,1.39,4.93,3.69,9.7,6.89,14.04Z"/><path class="cls-10" d="m1327.59,2506.17c29.1-269.06,185.61-302.6,234.15-281.78,201.12,53.71,59.52,400.26-56.6,497.42-62.82,22.62-122.13-4.2-178.26-75.75l.71-139.88Z"/><path class="cls-10" d="m2186.2,2246.06c99.73-211.55,288.15-181.25,321.93-150.54,63.35,100.61-115.5,330.22-237.78,376.79-67.92,11.73-142.86-107.54-84.15-226.25Z"/><path class="cls-11" d="m2187.71,1456.44c-231.72,75.13-724.82,175.15-791.89-149.04"/><path class="cls-11" d="m1326.88,1307.39c37.26-16.77,100.61-20.49,147.24,0"/><path class="cls-10" d="m1159.73,1982.94c1.19.01,3.84.25,6.07.42l7.15.5,7.31.48,7.5.34c9.92.56,20.17.62,30.23.91,20.36.08,40.75-.21,61.16-1.28,40.78-2.03,81.41-6.18,121.35-12.98,4.99-.81,10-1.52,14.97-2.41l14.86-2.96c9.88-2.06,19.81-3.7,29.58-6.06,19.53-4.8,39.07-9.09,58.11-15.04,38.45-10.5,75.35-24.79,111.49-39.49l2.03-.83c57.42-23.35,122.91,4.27,146.26,61.69,23.35,57.42-4.27,122.91-61.69,146.26-5.53,2.25-11.75,4.15-17.39,5.47-47.48,10.8-94.91,20.26-142.61,25.19-23.75,3.18-47.61,4.5-71.32,6.21-11.86.81-23.75.87-35.59,1.31l-17.75.51c-5.92.07-11.84-.06-17.74-.08-47.26.1-94.23-2.9-140.84-8.32-23.3-2.66-46.54-6.18-69.71-10.17-11.65-2.26-23.18-4.28-34.89-6.91l-8.74-1.88-8.89-2.09-9.03-2.19-10.06-2.57c-36.46-9.33-58.45-46.45-49.13-82.91,7.95-31.07,36.08-51.64,66.79-51.26l10.51.14Z"/><path class="cls-10" d="m1645.48,1903.61s22.36-44.72,70.8-81.98c48.44-37.26,277.61,35.4,288.79,109.93,6.12,40.78-98.75,5.59-98.75,5.59,24.22,27.95,9.32,68.94-13.04,72.66,3.73,40.99-18.63,63.35-55.89,63.35-33.42,22.05-166.52,48.79-166.52,48.79l-25.39-218.34Z"/><path class="cls-7" d="m2946.55,1748.88l-754.72,225.56c-51.35,15.35-104.77-17.92-104.77-65.23v-637.01c0-29.47,21.48-55.68,53.45-65.23l754.72-225.56c51.35-15.35,104.77,17.92,104.77,65.23v637.01c0,29.47-21.48,55.68-53.45,65.23Z"/><polygon class="cls-9" points="1811.3 2073.15 2265.91 1912.92 2342.3 1924.5 1811.3 2073.15"/><line class="cls-12" x1="1803.85" y1="2110.42" x2="2951.56" y2="1771.32"/><path class="cls-6" d="m2946.55,1748.88l-754.72,225.56c-51.35,15.35-104.77-17.92-104.77-65.23v-637.01c0-29.47,21.48-55.68,53.45-65.23l754.72-225.56c51.35-15.35,104.77,17.92,104.77,65.23v637.01c0,29.47-21.48,55.68-53.45,65.23Z"/><path class="cls-5" d="m2166.05,1940.96c-22.62,0-41.73-14.54-41.73-31.75v-637.01c0-12.86,10.8-24.73,26.86-29.53l754.72-225.56c4.94-1.47,10.02-2.22,15.11-2.22,22.62,0,41.73,14.54,41.73,31.75v637.02c0,12.86-10.8,24.73-26.86,29.53l-754.73,225.56c-4.93,1.47-10.01,2.22-15.1,2.22Z"/><path class="cls-5" d="m2166.05,1940.96c-22.62,0-41.73-14.54-41.73-31.75v-637.01c0-12.86,10.8-24.73,26.86-29.53l754.72-225.56c4.94-1.47,10.02-2.22,15.11-2.22,22.62,0,41.73,14.54,41.73,31.75v637.02c0,12.86-10.8,24.73-26.86,29.53l-754.73,225.56c-4.93,1.47-10.01,2.22-15.1,2.22Z"/><path class="cls-9" d="m2166.05,1903.7c-1.82,0-3.33-.31-4.47-.69v-624.56c.09-.03,754.99-225.64,754.99-225.64,1.47-.44,2.97-.66,4.44-.66,1.82,0,3.33.31,4.47.69v624.56c-.09.03-754.99,225.65-754.99,225.65-1.46.44-2.96.66-4.43.66Z"/><path class="cls-10" d="m2726.68,1867.53c-2.43-107.39-73.23-99.94-95.59-10.5-7.54-116.76-96.88-48.44-100.61,22.36-11.05-66.01-89.43-81.98-100.71,75.9,62.18,69.14,167.73,73.08,236.86,10.9,69.14-62.18,60.04-98.65,60.04-98.65Z"/><ellipse class="cls-6" cx="2584.39" cy="1462.32" rx="99.2" ry="91.06" transform="translate(-293.38 2194.34) rotate(-43.77)"/><line class="cls-13" x1="2520.56" y1="1617.71" x2="2660.9" y2="1581.28"/></g></g></g></svg>