<?xml version="1.0" encoding="UTF-8"?><svg xmlns="http://www.w3.org/2000/svg" xmlns:xlink="http://www.w3.org/1999/xlink" viewBox="0 0 1305.46 1500"><defs><style>.cls-1{fill:none;}.cls-2{clip-path:url(#clippath);}.cls-3{fill:#010101;}.cls-4{fill:#66cdf0;}.cls-5{fill:#efcd43;}.cls-6{fill:#ef856d;}.cls-7{fill:#fff;}.cls-8{fill:#fcc36e;}.cls-9{fill:#fbc75f;}.cls-10{fill:#925f4e;}.cls-11{fill:#9db4d1;}.cls-12{fill:#8e97b7;}.cls-13{fill:#a9dff0;}.cls-14{fill:#a5abd6;}.cls-15{fill:#c4dcf2;}.cls-16{fill:#e19352;}.cls-17{fill:#e04d4c;}.cls-18{fill:#426f92;}.cls-19{fill:#8081a3;}.cls-20{fill:#5e5f79;}.cls-21{fill:#4e8baf;}.cls-22{fill:#313337;}.cls-23{fill:#508caf;}.cls-24{fill:#4e4e64;}.cls-25{isolation:isolate;}.cls-26{mix-blend-mode:multiply;opacity:.57;}</style><clipPath id="clippath"><path class="cls-1" d="m910.51,873.4c-3.18,5.37-6.57,10.62-10.18,15.73-.14.19-.28.37-.39.56-29.16,49.56-74.47,81.68-135.32,94.09-2.32.46-14.52,1.44-16.89,1.85l-23.3,4.02-4.18.72-4.41.77-42.84,7.41-17.82,3.07c-5.13.88-10.24,1.6-15.33,2.11-.4.07-.79.09-1.18.14-.44.05-.88.09-1.32.16-265.64,33.31-421.36-146.65-419.59-219.99,56.85,55.24,155.1,50.44,155.1,50.44-.42-1.39,11.35-17.22,10.72-20.45-.28-1.53-.56-3.07-.84-4.62l-46.76-263.83c-12.92-62.47-23.65-125.33-1.58-194.35,8.18-25.6,25.55-47.18,48.62-60.72-.42,1.16-.81,2.35-1.18,3.53-9.2,28.74-10.13,67.25-8.08,102.42,2.86,49.3,11.57,92.02,11.57,92.02.28,2.72,44.84,263.74,44.84,263.74,21.21,122.8,133.83,206.91,255.93,194.46,5.51-.53,11.01-1.3,16.52-2.25l17.82-3.07,74.76-12.92c44.18-7.62,83.33-27.11,114.81-54.57.19-.16.35-.3.53-.46Z"/></clipPath></defs><g class="cls-25"><g id="Layer_1"><g><path class="cls-22" d="m648.62,54.6l544.74,184.69s163.42,470.1-104.91,861.51c-140.91,205.53-411.45,338.9-439.83,344.61-28.38-5.71-298.92-139.07-439.83-344.61C-59.55,709.39,103.88,239.29,103.88,239.29L648.62,54.6Z"/><path class="cls-9" d="m574.08,495.05h166.1c44.8,0,81.17,36.37,81.17,81.17v1134.32c0,44.8-36.37,81.17-81.17,81.17h-166.1c-44.8,0-81.17-36.37-81.17-81.17V576.22c0-44.8,36.37-81.17,81.17-81.17Z" transform="translate(1800.52 486.25) rotate(90)"/><path class="cls-9" d="m574.08,506.67h166.1c38.39,0,69.55,31.17,69.55,69.55v1134.32c0,38.39-31.17,69.55-69.55,69.55h-166.1c-38.39,0-69.55-31.17-69.55-69.55V576.22c0-38.39,31.17-69.55,69.55-69.55Z" transform="translate(1800.52 486.25) rotate(90)"/><path class="cls-9" d="m1060.08,1221.29H260c-2.57,0-4.65,2.08-4.65,4.65v104.74c0,33.67,27.39,61.06,61.06,61.06h687.24c33.67,0,61.06-27.39,61.06-61.06v-104.74c0-2.57-2.08-4.65-4.65-4.65Z"/><path class="cls-22" d="m294.84,1260.78h730.39v69.9c0,11.91-9.67,21.57-21.57,21.57H316.42c-11.91,0-21.57-9.67-21.57-21.57v-69.9h0Z"/><path class="cls-9" d="m648.63,1500c-3.61,0-7.23-.36-10.76-1.07-27.77-5.58-111.15-47.54-197.44-105.59-82.38-55.43-197.24-145.82-276.67-261.67-65.13-95-111.5-202.18-137.82-318.57C5.04,720.68-3.29,622.36,1.17,520.87c7.58-172.56,49.37-294.41,51.15-299.51,5.56-16.01,17.97-28.33,34.04-33.77L631.1,2.89c5.65-1.92,11.55-2.89,17.53-2.89s11.88.97,17.54,2.89l544.74,184.69c16.07,5.45,28.47,17.76,34.04,33.78,1.77,5.09,43.56,126.94,51.14,299.5,4.46,101.49-3.88,199.81-24.78,292.23-26.32,116.38-72.69,223.56-137.82,318.56-79.42,115.85-194.29,206.24-276.66,261.67-86.28,58.05-169.66,100.01-197.44,105.59-3.53.71-7.15,1.07-10.76,1.07Z"/><path class="cls-8" d="m648.63,1476.77c-2.07,0-4.14-.2-6.18-.61-21.75-4.37-101.58-43.24-189.05-102.09-80.69-54.3-193.12-142.7-270.47-255.53-63.46-92.57-108.65-197.05-134.32-310.55-20.44-90.41-28.6-186.66-24.23-286.09,7.43-169.09,48.15-287.92,49.88-292.9,3.18-9.14,10.39-16.3,19.55-19.4L638.55,24.89c3.27-1.11,6.67-1.66,10.07-1.66s6.81.55,10.07,1.66l544.74,184.7c9.16,3.11,16.38,10.27,19.55,19.4,1.73,4.98,42.45,123.8,49.88,292.9,4.37,99.43-3.78,195.68-24.23,286.09-25.67,113.5-70.86,217.99-134.32,310.55-77.35,112.83-189.78,201.23-270.47,255.53-87.46,58.85-167.3,97.72-189.04,102.09-2.04.41-4.11.61-6.18.61Z"/><path class="cls-9" d="m648.63,1476.77c-2.07,0-4.14-.2-6.18-.61-21.75-4.37-101.58-43.24-189.05-102.09-80.69-54.3-193.12-142.7-270.47-255.53-63.46-92.57-108.65-197.05-134.32-310.55-20.44-90.41-28.6-186.66-24.23-286.09,7.43-169.09,48.15-287.92,49.88-292.9,3.18-9.14,10.39-16.3,19.55-19.4L638.55,24.89c3.27-1.11,6.67-1.66,10.07-1.66s6.81.55,10.07,1.66l544.74,184.7c9.16,3.11,16.38,10.27,19.55,19.4,1.73,4.98,42.45,123.8,49.88,292.9,4.37,99.43-3.78,195.68-24.23,286.09-25.67,113.5-70.86,217.99-134.32,310.55-77.35,112.83-189.78,201.23-270.47,255.53-87.46,58.85-167.3,97.72-189.04,102.09-2.04.41-4.11.61-6.18.61Z"/><path class="cls-7" d="m1063.2,291.19c-5.58-15.7-12.06-30.71-19.33-44.86-38.03-73.94-97.94-123.61-162.13-116.94-107.16-.74-304.09,66.93-440.48,131.58-19.61,9.27-37.96,18.51-54.62,27.48-1.24.67-2.45,1.37-3.66,2.08,0-.01,0-.02.01-.04-.19.11-.38.24-.58.36-.52.31-1.03.64-1.55.96-.95.59-1.89,1.17-2.82,1.79-.53.35-1.04.71-1.56,1.07-.89.61-1.78,1.23-2.65,1.87-.53.38-1.04.78-1.56,1.17-.84.64-1.68,1.28-2.5,1.94-.52.42-1.03.85-1.55,1.28-.79.66-1.58,1.33-2.35,2.02-.51.45-1.01.91-1.52,1.37-.75.69-1.49,1.38-2.21,2.09-.5.49-.99.98-1.48,1.47-.7.71-1.39,1.43-2.07,2.15-.49.52-.97,1.04-1.44,1.57-.66.73-1.3,1.47-1.94,2.21-.47.55-.94,1.1-1.4,1.66-.61.75-1.21,1.5-1.8,2.27-.45.58-.91,1.17-1.35,1.76-.57.76-1.12,1.54-1.67,2.32-.43.61-.86,1.22-1.28,1.85-.53.78-1.03,1.58-1.54,2.38-.41.64-.82,1.28-1.21,1.92-.49.8-.95,1.62-1.42,2.43-.38.66-.77,1.32-1.13,1.99-.45.83-.88,1.67-1.31,2.51-.35.68-.7,1.35-1.03,2.03-.42.87-.81,1.76-1.21,2.64-.3.67-.62,1.34-.91,2.02-.42.97-.8,1.96-1.19,2.95-.24.61-.49,1.2-.72,1.81-.6,1.6-1.16,3.22-1.68,4.86-22.07,69.02-11.34,131.88,1.58,194.35l46.76,263.83c.28,1.56.56,3.09.84,4.62.04.22.1.43.14.65.53,2.72,1.86,8.69,1.93,8.97.13.56.96,3.88,1.25,4.97.14.55.28,1.11.43,1.65.05.17.09.34.14.51.16.61.32,1.21.49,1.82.02.09.05.17.07.26.39,1.42.79,2.81,1.21,4.2l-.02-.02c-18.14,20.93-114.6,2.25-171.44-52.99-1.77,73.34,153.95,253.31,419.59,219.99.44-.07.88-.12,1.32-.16.25-.03.58-.06.95-.11.08-.01.16-.01.24-.03,5.09-.51,10.2-1.23,15.33-2.11l17.82-3.07,42.84-7.41.85-.15c17.54-3.01,31.04-5.36,31.04-5.36,70.72-12.22,120.54-50.05,152.21-95.95.12-.18.25-.37.39-.55,3.6-5.11,6.99-10.36,10.18-15.73-.19.16-.35.3-.53.46,0,0-.02.01-.03.02,22.88-39.35,33.53-82.87,33.48-120.59-.02-18.21-24.72-163.22-24.72-163.22,43.76-13.56,153.03-41.38,163.68-119.94,10.49-77.36-6.97-144.53-19.19-178.95Z"/><path class="cls-22" d="m660.44,58.6l515.22,174.69c11.32,3.84,20.09,12.94,23.46,24.41,26.56,90.45,126.3,497.46-110.66,843.1-127.82,186.44-362.29,313.49-425.94,339.76-8.89,3.67-18.88,3.67-27.77,0-63.65-26.26-298.13-153.32-425.95-339.76C-28.17,755.15,71.56,348.15,98.13,257.69c3.37-11.47,12.14-20.57,23.46-24.41L636.81,58.6c7.66-2.6,15.96-2.6,23.62,0Z"/><polygon class="cls-11" points="1121.55 601.76 1078.45 719.68 1075.41 719.28 1057.76 716.91 1053.69 716.38 1028.09 712.99 1035.55 582.13 1089.21 545.94 1093.93 542.75 1094.21 542.57 1094.27 542.73 1121.55 601.76"/><path class="cls-23" d="m996.05,735.05c9.86-16.08,35.11-36.07,82.41-15.37,28.86,12.63,25.61,42.05,6.09,43.51,10.78,9.23,8.66,32.13-11.48,32.88,12.98,11.17,2.42,28.38-16.97,30.16-18.11,1.66-45.32,5.06-65.13-18.1l5.07-73.09Z"/><path class="cls-23" d="m893.51,694.85c15.54,32.98,51.76,44.04,86.52,42.46,12.92-.41,26.24-2.23,39.57-4.95,48.35-7.87,62.36,60.71,14.71,72.39-55.25,7.45-117.99,2.13-161.32-38.13-14.9-13.79-26.28-31.29-33.11-49.48-11.89-35.43,37.01-55.58,53.63-22.29h0Z"/><path class="cls-21" d="m1034.3,804.75c-14.08,1.9-28.67,2.97-43.28,2.83-.07.02-.14.02-.19,0-42.65-.39-85.63-11.01-117.85-40.96-14.91-13.8-26.27-31.29-33.1-49.48-11.89-35.43,37.01-55.59,53.62-22.3,23.72,47.54,82.94,42.42,102.55,40.2,7.81-.88,15.63-1.08,23.55-2.69,48.34-7.88,62.37,60.7,14.71,72.39Z"/><path class="cls-21" d="m874,1038.4c-8.13-2.45-15.01-8.61-18.06-17.23-17.79-50.32-62.93-47.82-68.03-47.37l.27-.03-6.02-54.84c2.44-.27,24.61-2.37,50.66,6.63,24.85,8.58,58.05,28.94,75.12,77.22,5.08,14.36-2.45,30.12-16.81,35.2-5.75,2.03-11.72,2.04-17.14.41Z"/><path class="cls-18" d="m860.42,939.26l-31.22,45.53c-17.98-12.13-37.15-11.31-41.03-11.01l-1.9-17.28,42.4-32.27c1.37.42,2.76.86,4.16,1.35,8.55,2.95,18.07,7.29,27.6,13.68Z"/><path class="cls-17" d="m277.75,824.24c-.12.16-.23.3-.37.42l-27.27,25.9c-.28.28-.6.46-.98.6-38.38,12.43-91.16,6.71-120.64-51.43-.81-1.56.19-3.46,1.93-3.69,10.78-1.46,21.33-1.25,31.5,1.53,2.39.67,4.23-2.04,2.69-4-23.97-30.53-31.4-99.49-3.86-140.24,1.3-1.92,3.9-2.16,4.74,0,.12.3.23.6.35.91,13.98,35.64,28.67,62.14,73.73,99.57,1.67,1.37,4.18.19,4.16-1.97-.02-8.5,2.09-17.49,5.78-25.9.72-1.63,2.9-2.02,4.16-.74,14.05,14.45,25.9,37.84,29.71,59.59,2.65,15.15,1.44,29.48-5.64,39.47Z"/><path class="cls-17" d="m277.74,824.24c-.12.16-.23.3-.37.42l-27.27,25.9c-.28.28-.6.46-.98.6-8.06,2.63-16.75,4.44-25.72,5.11-33.8,2.6-71.62-10.59-94.92-56.54-.81-1.56.19-3.46,1.93-3.69,10.78-1.46,21.32-1.25,31.5,1.53,2.39.67,4.23-2.04,2.7-4-23.97-30.53-31.38-99.5-3.86-140.24,1.3-1.93,3.9-2.16,4.74,0,.12.3.23.6.35.91,13.98,35.64,28.67,62.14,73.73,99.57,1.67,1.37,4.18.19,4.16-1.97-.02-8.5,2.09-17.49,5.78-25.9.72-1.63,2.9-2.02,4.16-.74,14.06,14.45,25.9,37.84,29.71,59.59,2.65,15.15,1.44,29.48-5.64,39.47Z"/><path class="cls-17" d="m651.44,177.2l-102.82,85.25-211.84,175.63c-26.1,1.35-50.05,19.45-72.13,52-3.71,5.48-11.87,5.51-15.51-.01-16.68-25.35-32.35-105.78,22.35-168.26-14.81-9.29-56.57-2.89-71.26-1.48-5.29.5-9.3-4.62-7.39-9.57,12.5-32.18,98.23-104.11,171.27-106.74-11.97-20.42-38.01-36.74-70.93-51.06-5.12-2.23-4.48-9.29.81-11.09h.03c117.53-39.99,315.58-31.62,357.43,35.33Z"/><path class="cls-17" d="m651.43,177.2l-102.82,85.26-211.84,175.62c-26.09,1.35-50.04,19.44-72.13,52.01-1.18,1.74-2.83,2.95-4.62,3.55-3.83,1.37-8.41.19-10.9-3.58-16.68-25.34-32.34-105.77,22.35-168.26-14.82-9.29-56.57-2.88-71.25-1.49-5.3.51-9.31-4.6-7.39-9.57,12.5-32.17,98.22-104.1,171.26-106.74-11.96-20.42-38-36.73-70.92-51.04-5.11-2.23-4.48-9.29.81-11.1h.02c117.52-39.98,315.59-31.62,357.43,35.33Z"/><path class="cls-6" d="m651.43,177.2l-19.19,15.89-83.63,69.37c-20.49-3.65-35.66-13.08-41.65-30.85-22.02-65.37-124.31-83.12-178.71-87.95-8.27-.72-15.45-1.16-21.05-1.42-7.97-.37-12.8-.37-13.19-.37,3.6-1.23,7.29-2.42,11.06-3.53,118.5-35.87,305.81-26.02,346.37,38.86Z"/><path class="cls-17" d="m300.27,533.59c-6.19,8.87-4.02,21.07,4.86,27.26l42.58,27.54-18.2-94.55-29.23,39.75Z"/><path class="cls-17" d="m324.46,650.3c-6.01,8.25-4.2,19.78,4.05,25.79l39.6,26.78-15.33-89.47-28.31,36.91Z"/><path class="cls-17" d="m348.85,757.76c-4.9,6.87-3.31,16.4,3.57,21.3l32.99,21.82-13.44-73.9-23.12,30.77Z"/><path class="cls-4" d="m1082.38,470.14c-10.64,78.57-119.92,106.37-163.68,119.94,0,0,24.69,145.01,24.72,163.22.12,88.39-58.4,208.61-195.69,232.33,0,0-24.79,4.3-50.81,8.73-26.02,4.44-53.29,8.99-58.26,9.5-.44.05-.88.09-1.32.16-258.46,32.41-412.86-137.08-419.39-213.82-.19-2.27,2.46-3.62,4.14-2.09,57.28,52.07,149.41,69.31,167.1,48.91l.02.02c-2.67-8.97-4.83-18.19-6.48-27.64l-37.1-214.95-9.66-48.88c-12.92-62.47-23.65-125.33-1.58-194.35,8.6-26.92,27.39-49.41,52.27-62.77,16.66-8.97,35.01-18.21,54.61-27.48,136.39-64.65,333.31-132.32,440.48-131.58,64.19-6.67,124.1,43,162.13,116.94,7.27,14.15,13.75,29.15,19.33,44.86,12.22,34.43,29.69,101.59,19.19,178.95Z"/><path class="cls-4" d="m1082.38,470.14c-10.64,78.57-119.92,106.37-163.68,119.94,0,0,.35,2.09.98,5.83,4.62,27.25,23.72,141.36,23.74,157.39.05,37.4-10.41,80.49-32.87,119.57-30.64,53.29-83.63,99.08-162.82,112.76,0,0-24.79,4.3-50.81,8.73-26.02,4.44-53.29,8.99-58.26,9.5-.44.05-.88.09-1.32.16-258.46,32.41-412.85-137.08-419.38-213.81-.21-2.28,2.46-3.62,4.14-2.09,57.29,52.06,149.42,69.3,167.1,48.9l.02.02c-2.67-8.97-4.83-18.19-6.48-27.64l-37.1-214.95-9.66-48.88c-12.92-62.47-23.65-125.33-1.58-194.35,8.6-26.92,27.39-49.41,52.27-62.77,16.66-8.97,35.01-18.21,54.61-27.48,136.39-64.65,333.31-132.32,440.48-131.58,64.19-6.67,124.1,43,162.13,116.94,7.27,14.15,13.75,29.15,19.33,44.86,12.22,34.43,29.69,101.59,19.19,178.95Z"/><path class="cls-13" d="m910.54,872.86c10.8-39.78,8.16-84.21,5.9-111.54-3.21-38.88-25.03-157.92-25.03-157.92l28.26-7.49c4.62,27.25,23.72,141.36,23.74,157.39.05,37.4-10.41,80.49-32.87,119.57Z"/><path class="cls-13" d="m1063.2,291.19s-14.76-1.5-39.57-4.05c-9.42-.97-20.28-2.08-32.34-3.32-131.35-13.52-403.96-41.83-484.34-52.22,128.35-54.23,283.88-102.84,374.79-102.21,64.19-6.67,124.1,43,162.13,116.94,7.27,14.15,19.33,44.86,19.33,44.86Z"/><path class="cls-7" d="m1072.76,324.36c-54.68-101.98-124.83-165.9-168.53-169.66-121.68-10.48-297.46,50.46-381.64,70.35,125.14-51.53,271.89-96.27,359.15-95.66,64.19-6.67,124.1,43,162.13,116.94,7.27,14.15,13.75,29.15,19.33,44.86,2.95,8.32,6.2,18.54,9.32,30.36.09.95.19,1.88.26,2.81Z"/><g class="cls-2"><g class="cls-26"><path class="cls-14" d="m1082.38,470.14c-10.64,78.57-119.92,106.37-163.68,119.94,0,0,24.69,145.01,24.72,163.22.12,88.39-58.4,208.61-195.69,232.33,0,0-24.79,4.3-50.81,8.73-26.02,4.44-53.29,8.99-58.26,9.5-.44.05-.88.09-1.32.16-258.46,32.41-412.86-137.08-419.39-213.82-.19-2.27,2.46-3.62,4.14-2.09,57.28,52.07,149.41,69.31,167.1,48.91l.02.02c-2.67-8.97-4.83-18.19-6.48-27.64l-37.1-214.95-9.66-48.88c-12.92-62.47-23.65-125.33-1.58-194.35,8.6-26.92,27.39-49.41,52.27-62.77,16.66-8.97,35.01-18.21,54.61-27.48,136.39-64.65,333.31-132.32,440.48-131.58,64.19-6.67,124.1,43,162.13,116.94,7.27,14.15,13.75,29.15,19.33,44.86,12.22,34.43,29.69,101.59,19.19,178.95Z"/></g></g><path class="cls-17" d="m388.05,857.89l-14.11-21.21c-3.59-5.4-10.87-6.86-16.27-3.27l-21.21,14.11c-1.46.97-3.49,3.6-3.49,3.6,7.1,7.45,46.44,14.96,55.07,6.78Z"/><path class="cls-17" d="m321.29,843.9l-8.49-19.91c-2.16-5.07-8.01-7.42-13.08-5.26l-19.91,8.49c-1.37.58-3.47,2.46-3.47,2.46,8.52,8.35,34.2,19.96,45.74,17.64,0,0-.31-2.32-.79-3.44Z"/><circle class="cls-23" cx="865.28" cy="204.02" r="13.58"/><circle class="cls-23" cx="937.81" cy="197.04" r="13.58"/><circle class="cls-3" cx="557.09" cy="373.89" r="33.94"/><circle class="cls-3" cx="670.32" cy="375.77" r="33.94"/><path class="cls-21" d="m435.71,988.17c3.04-1.46,17.28-6.56,25.04-7.61,45.36-6.18,51.11-44.53,51.62-48.88l-.02.23c12.32-29.72,45.57-15.75,47.1,4.49-.2,2.1-2.3,21.07-14.39,41.39-11.53,19.38-34.41,43.72-77.92,49.64-12.94,1.76-24.87-7.3-26.63-20.25-.71-5.18-7.11-14.75-4.8-19.02Z"/><path class="cls-7" d="m713.45,606.48l19.01,30.48c4.84,7.76,15.04,10.13,22.8,5.29l30.48-19.01c2.09-1.31,3.8-3,5.06-4.93-31.65-2.9-57.92-9.31-79.52-17.28.38,1.88,1.1,3.72,2.17,5.44Z"/><path class="cls-21" d="m493.05,1004.65c52.37,36.22,63.34,82.81,35.12,125.48-3.41,5.16-10.07,7.14-16.02,5.46-31.32-8.82-98.34-72.03-106.81-113.94,3.23-21.11,19.82-33.69,48.5-38.55l39.21,21.55Z"/><path class="cls-3" d="m921.03,603.8c-34.24,7.59-86.01,16.27-135.59,13.76-34.47-1.77-67.88-8.92-93.55-25.65-25.21-16.4-40.4-40.37-45.16-71.25l13.78-2.14c4.16,26.81,17.26,47.55,39,61.7,27.34,17.82,68.07,25.69,121.03,23.44,36.91-1.58,72.13-7.77,98.17-13.6,7.77-1.31,10.08,12.42,2.32,13.73Z"/><path class="cls-3" d="m677.25,531.63c-15.68-6.89-37.45-5.42-49.45-.02-7.97,3.59-13.7-9.13-5.72-12.72,14.94-6.72,40.62-8.89,60.79-.02,7.79,3.43,2.18,16.2-5.61,12.77Z"/><path class="cls-21" d="m511.26,716.48c31.48,32.34,69.09,58.97,109.73,78.44,13.63,6.75,27.75,11.99,41.79,16.95,55.66,21.47,18.92,103.74-34.27,76.43-61.9-33.26-115.99-80.57-156.29-138.09-22.28-26.47,16.36-59.5,39.04-33.72Z"/><path class="cls-22" d="m294.84,1260.78h730.39v69.9c0,11.91-9.67,21.57-21.57,21.57H316.42c-11.91,0-21.57-9.67-21.57-21.57v-69.9h0Z"/><rect class="cls-22" x="55.26" y="1025.63" width="1203.74" height="235.51" rx="34.71" ry="34.71"/><g><path class="cls-7" d="m270.45,1230.27h-37.43c-5.72,0-10.72-1.56-15.01-4.68-3.51-2.47-7.15-6.56-10.92-12.28l-64.53-96.31c-.65-1.43-1.76-2.14-3.31-2.14v115.41h-37.43v-168.64h37.43c5.59,0,10.59,1.56,15.01,4.68,3.64,2.6,7.28,6.63,10.92,12.09l64.34,96.31c.65,1.56,1.82,2.34,3.51,2.34v-115.41h37.43v168.64Z"/><path class="cls-7" d="m331.08,1230.27h-37.43v-168.64h37.43v168.64Z"/><path class="cls-7" d="m507.9,1099.07h-65.5v131.21h-37.43v-131.21h-65.7v-37.43h168.64v37.43Z"/><path class="cls-7" d="m664.06,1230.27h-37.43v-61.8c0-2.6-1.3-3.9-3.9-3.9h-71.16v65.7h-37.43v-168.64h112.49c10.14,0,18.91,3.64,26.32,10.92,7.41,7.28,11.11,16.12,11.11,26.51v28.07c0,3.64-.62,7.21-1.85,10.72-1.24,3.51-2.96,6.18-5.17,7.99,2.21,1.82,3.93,4.45,5.17,7.89,1.23,3.45,1.85,7.05,1.85,10.82v65.7Zm-37.43-106.84v-20.66c0-2.47-1.3-3.7-3.9-3.7h-71.16v28.07h71.16c1.17,0,2.11-.36,2.83-1.07s1.07-1.59,1.07-2.63Z"/><path class="cls-7" d="m870.51,1230.27h-135.91l17.69-37.43h59.73l-35.87-76.62c-.78-1.43-1.89-2.14-3.31-2.14-1.82,0-2.99.72-3.51,2.14l-53.22,114.05h-41.13l71.94-154.4c5.2-11.31,13.84-16.96,25.93-16.96s20.54,5.65,25.74,16.96l71.94,154.4Z"/><path class="cls-7" d="m1031.93,1192.84c0,10.27-3.67,19.08-11.01,26.42-7.35,7.34-16.15,11.01-26.42,11.01h-112.49v-168.64h112.49c10.14,0,18.91,3.64,26.32,10.92,7.41,7.28,11.11,16.12,11.11,26.51v93.77Zm-37.43-3.9v-86.17c0-2.47-1.3-3.7-3.9-3.7h-71.16v93.77h71.16c2.6,0,3.9-1.3,3.9-3.9Z"/><path class="cls-7" d="m1221.81,1192.84c0,10.14-3.64,18.91-10.92,26.32-7.28,7.41-16.12,11.11-26.52,11.11h-93.77c-10.4,0-19.24-3.64-26.51-10.92-7.28-7.28-10.92-16.12-10.92-26.52v-93.77c0-10.4,3.64-19.23,10.92-26.51,7.28-7.28,16.11-10.92,26.51-10.92h93.77c10.4,0,19.23,3.64,26.52,10.92,7.28,7.28,10.92,16.12,10.92,26.51v93.77Zm-37.43-3.9v-86.17c0-1.04-.36-1.92-1.07-2.63-.72-.71-1.59-1.07-2.63-1.07h-86.37c-1.04,0-1.92.36-2.63,1.07-.72.71-1.07,1.59-1.07,2.63v86.17c0,1.17.36,2.11,1.07,2.83.71.71,1.59,1.07,2.63,1.07h86.37c2.47,0,3.7-1.3,3.7-3.9Z"/></g><g><path class="cls-7" d="m338.91,1322.51c-1.82,0-3.49-.46-5-1.37-1.51-.91-2.72-2.12-3.63-3.63-.91-1.51-1.37-3.18-1.37-5v-3.96h9.49v3.52c0,.24.08.44.25.61s.37.25.61.25h30.99c.24,0,.44-.08.61-.25.17-.17.25-.37.25-.61v-9.85c0-.24-.08-.43-.25-.58-.17-.14-.37-.22-.61-.22h-31.35c-1.82,0-3.49-.46-5-1.37-1.51-.91-2.72-2.12-3.63-3.63-.91-1.51-1.37-3.2-1.37-5.07v-10.64c0-1.82.46-3.49,1.37-5,.91-1.51,2.12-2.72,3.63-3.63,1.51-.91,3.18-1.37,5-1.37h31.79c1.82,0,3.49.46,5,1.37,1.51.91,2.72,2.12,3.63,3.63.91,1.51,1.37,3.18,1.37,5v3.95h-9.56v-3.52c0-.24-.08-.44-.25-.61-.17-.17-.37-.25-.61-.25h-30.99c-.24,0-.44.08-.61.25-.17.17-.25.37-.25.61v9.85c0,.24.08.43.25.57.17.15.37.22.61.22h31.42c1.82,0,3.49.46,5,1.37,1.51.91,2.72,2.12,3.63,3.63.91,1.51,1.37,3.2,1.37,5.07v10.64c0,1.82-.46,3.49-1.37,5-.91,1.51-2.12,2.72-3.63,3.63-1.51.91-3.18,1.37-5,1.37h-31.79Z"/><path class="cls-7" d="m393.14,1321.14c-1.49-.91-2.69-2.11-3.6-3.59-.91-1.49-1.37-3.14-1.37-4.96v-21.86c0-1.82.45-3.48,1.37-4.96.91-1.48,2.11-2.68,3.6-3.59,1.49-.91,3.14-1.37,4.96-1.37h22.51c1.82,0,3.49.46,5,1.37,1.51.91,2.71,2.11,3.6,3.59.89,1.49,1.33,3.14,1.33,4.96v15.68h-32.94v5.83c0,.24.08.44.25.61.17.17.37.25.61.25h32.07v9.42h-32.43c-1.82,0-3.48-.46-4.96-1.37Zm4.46-23.23h23.52v-6.83c0-.24-.08-.44-.25-.61s-.37-.25-.61-.25h-21.79c-.24,0-.44.08-.61.25s-.25.37-.25.61v6.83Z"/><path class="cls-7" d="m437.58,1322.51v-31.79c0-1.82.46-3.48,1.37-4.96.91-1.48,2.12-2.68,3.63-3.59,1.51-.91,3.15-1.37,4.93-1.37h23.16v9.42h-22.8c-.24,0-.44.08-.61.25s-.25.37-.25.61v31.43h-9.42Z"/><path class="cls-7" d="m496.33,1322.51l-22.94-41.71h10.86l16.47,30.28,16.4-30.28h10.86l-23.01,41.71h-8.63Z"/><path class="cls-7" d="m535.16,1321.14c-1.49-.91-2.69-2.11-3.6-3.59-.91-1.49-1.37-3.14-1.37-4.96v-21.86c0-1.82.45-3.48,1.37-4.96.91-1.48,2.11-2.68,3.6-3.59,1.49-.91,3.14-1.37,4.96-1.37h22.51c1.82,0,3.49.46,5,1.37,1.51.91,2.71,2.11,3.6,3.59.89,1.49,1.33,3.14,1.33,4.96v15.68h-32.94v5.83c0,.24.08.44.25.61.17.17.37.25.61.25h32.07v9.42h-32.43c-1.82,0-3.48-.46-4.96-1.37Zm4.46-23.23h23.52v-6.83c0-.24-.08-.44-.25-.61s-.37-.25-.61-.25h-21.79c-.24,0-.44.08-.61.25s-.25.37-.25.61v6.83Z"/><path class="cls-7" d="m579.6,1322.51v-31.79c0-1.82.46-3.48,1.37-4.96.91-1.48,2.12-2.68,3.63-3.59,1.51-.91,3.15-1.37,4.93-1.37h23.16v9.42h-22.8c-.24,0-.44.08-.61.25s-.25.37-.25.61v31.43h-9.42Z"/><path class="cls-7" d="m649.43,1322.51c-1.82,0-3.49-.46-5-1.37-1.51-.91-2.72-2.12-3.63-3.63-.91-1.51-1.37-3.18-1.37-5v-31.79c0-1.82.46-3.49,1.37-5,.91-1.51,2.12-2.72,3.63-3.63,1.51-.91,3.18-1.37,5-1.37h31.72c1.82,0,3.5.46,5.03,1.37,1.53.91,2.76,2.12,3.67,3.63.91,1.51,1.37,3.18,1.37,5v4.03h-9.56v-3.6c0-.24-.1-.44-.29-.61-.19-.17-.41-.25-.65-.25h-30.92c-.24,0-.44.08-.61.25-.17.17-.25.37-.25.61v30.92c0,.24.08.44.25.61s.37.25.61.25h30.92c.24,0,.46-.08.65-.25.19-.17.29-.37.29-.61v-9.35h-11.72v-9.56h21.29v19.35c0,1.82-.46,3.49-1.37,5-.91,1.51-2.13,2.72-3.67,3.63-1.54.91-3.21,1.37-5.03,1.37h-31.72Z"/><path class="cls-7" d="m703.83,1321.14c-1.51-.91-2.71-2.11-3.6-3.59s-1.33-3.14-1.33-4.96v-31.79h9.42v31.43c0,.24.08.44.25.61.17.17.37.25.61.25h21.79c.24,0,.44-.08.61-.25.17-.17.25-.37.25-.61v-31.43h9.42v31.79c0,1.82-.44,3.48-1.33,4.96s-2.07,2.68-3.56,3.59c-1.49.91-3.16,1.37-5.03,1.37h-22.51c-1.82,0-3.49-.46-5-1.37Z"/><path class="cls-7" d="m758.74,1322.51c-1.82,0-3.49-.46-5-1.37-1.51-.91-2.71-2.11-3.6-3.59s-1.33-3.14-1.33-4.96v-15.68h32.94v-5.83c0-.24-.09-.44-.25-.61-.17-.17-.37-.25-.61-.25h-32.07v-9.42h32.43c1.82,0,3.49.46,5,1.37,1.51.91,2.71,2.11,3.6,3.59.89,1.49,1.33,3.14,1.33,4.96v31.79h-32.43Zm.36-9.42h22.65v-7.7h-23.52v6.83c0,.24.08.44.25.61.17.17.37.25.61.25Z"/><path class="cls-7" d="m797.28,1322.51v-31.79c0-1.82.46-3.48,1.37-4.96.91-1.48,2.12-2.68,3.63-3.59,1.51-.91,3.15-1.37,4.93-1.37h23.16v9.42h-22.8c-.24,0-.44.08-.61.25s-.25.37-.25.61v31.43h-9.42Z"/><path class="cls-7" d="m839.13,1321.14c-1.49-.91-2.67-2.11-3.56-3.59-.89-1.49-1.33-3.14-1.33-4.96v-21.86c0-1.82.44-3.48,1.33-4.96.88-1.48,2.07-2.68,3.56-3.59,1.48-.91,3.16-1.37,5.03-1.37h23.08v-13.66h9.42v55.37h-32.5c-1.87,0-3.55-.46-5.03-1.37Zm5.47-8.05h21.79c.24,0,.44-.08.61-.25.17-.17.25-.37.25-.61v-21.14c0-.24-.08-.44-.25-.61s-.37-.25-.61-.25h-21.79c-.24,0-.44.08-.61.25s-.25.37-.25.61v21.14c0,.24.08.44.25.61.17.17.37.25.61.25Z"/><path class="cls-7" d="m884.3,1276.63v-9.49h9.42v9.49h-9.42Zm0,45.88v-41.71h9.42v41.71h-9.42Z"/><path class="cls-7" d="m909.47,1322.51c-1.82,0-3.49-.46-5-1.37-1.51-.91-2.71-2.11-3.6-3.59s-1.33-3.14-1.33-4.96v-15.68h32.94v-5.83c0-.24-.09-.44-.25-.61-.17-.17-.37-.25-.61-.25h-32.07v-9.42h32.43c1.82,0,3.49.46,5,1.37,1.51.91,2.71,2.11,3.6,3.59.89,1.49,1.33,3.14,1.33,4.96v31.79h-32.43Zm.36-9.42h22.65v-7.7h-23.52v6.83c0,.24.08.44.25.61.17.17.37.25.61.25Z"/><path class="cls-7" d="m948.8,1322.51v-41.71h32.43c1.82,0,3.49.46,5,1.37,1.51.91,2.71,2.11,3.6,3.59.89,1.49,1.33,3.14,1.33,4.96v31.79h-9.42v-31.43c0-.24-.08-.44-.25-.61s-.37-.25-.61-.25h-21.79c-.24,0-.44.08-.61.25s-.25.37-.25.61v31.43h-9.42Z"/></g><path class="cls-19" d="m793.5,897.63c-32.75,55.99-80.52,87.88-87.79,89.88-7.48-.95-59.31-25.72-99.71-76.45-76.94-96.62-68.25-203.06-68.25-203.06,0,0,20.77-18.86,67.11-33.24,53.17-16.49,101.1-19.93,156.09-11.17,47.93,7.62,71.16,23.32,71.16,23.32,0,0,23.79,104.12-38.61,210.72Z"/><path class="cls-19" d="m835.53,762.72c-1.49,18.72-4.81,39.93-11.17,62.44-6.57,23.18-16.4,47.76-30.87,72.46-32.75,55.99-80.52,87.88-87.79,89.88-7.48-.95-59.31-25.72-99.71-76.45-76.94-96.62-68.25-203.06-68.25-203.06,0,0,20.77-18.86,67.11-33.24,53.18-16.49,101.1-19.93,156.09-11.17,3.46.56,6.78,1.14,9.97,1.77,41.19,8.04,61.19,21.56,61.19,21.56,0,0,.02.07.05.23.02.14.07.33.12.6.02.05.02.09.05.16.09.42.21.98.33,1.65.02.09.05.21.07.33,1.6,8.71,5.76,35.96,2.83,72.85Z"/><path class="cls-12" d="m705.71,987.51c-7.48-.95-59.31-25.72-99.71-76.45-76.94-96.62-68.25-203.06-68.25-203.06,0,0,20.77-18.86,67.11-33.24,24.23-7.51,47.36-12.32,70.57-14.49,8.32,52.74,29.77,289.51,30.27,327.25Z"/><path class="cls-7" d="m832.11,686.9l-21.05,15.08-250.33,17.91-22.97-11.89s20.77-18.86,67.11-33.24c53.17-16.49,101.1-19.93,156.09-11.17,47.93,7.62,71.16,23.32,71.16,23.32Z"/><path class="cls-20" d="m703.88,961.9c-15.02-7.41-50.35-28.46-79.7-65.31-56.78-71.3-63.1-149.39-63.44-176.69,8.76-5.71,25.5-15.04,51.01-22.95,32.57-10.1,62.07-14.81,92.83-14.81,16.93,0,34.18,1.43,52.72,4.38,26.34,4.19,44.22,11.02,53.76,15.45,3.55,27.01,8.44,105.23-37.61,183.91-23.8,40.67-55.77,66.54-69.58,76.01Z"/><path class="cls-20" d="m757.3,686.52c-18.54-2.95-35.79-4.38-52.72-4.38-30.76,0-60.26,4.71-92.83,14.81-25.51,7.91-42.25,17.24-51.01,22.95.32,25.81,6.02,97.02,54.61,164.96l192.44-184.35c-10.11-4.37-26.89-10.24-50.49-13.99Z"/><path class="cls-24" d="m807.79,700.51l-180.04,172.46-12.4,11.88c2.81,3.92,5.73,7.84,8.83,11.73,29.35,36.86,64.68,57.91,79.7,65.31,13.81-9.47,45.79-35.34,69.58-76.01,46.05-78.68,41.16-156.9,37.61-183.91-.99-.46-2.1-.95-3.28-1.46Z"/><path class="cls-5" d="m623.53,715.74l18.41,153.67,32.62,29.67-14.61-102.44,65.06,104.12c10.52-10.62,19.15-21.56,26.22-33.14l2.52-166.63-31.88-2.01,3.02,140.45-75.51-132.9-25.85,9.22Z"/><path class="cls-16" d="m665.66,836.67l8.9,62.4-32.62-29.67-1.07-8.99,24.79-23.74Zm57.98-55.54l1.25,58.29-21.88-38.52-25.28,24.21,47.27,75.64c10.52-10.62,19.14-21.56,26.23-33.13l1.72-114.6-29.32,28.11Z"/><polygon class="cls-15" points="1124.82 603.39 1078.45 719.68 1075.41 719.31 1053.69 716.38 1091.53 555.37 1094.16 542.75 1094.21 542.57 1094.27 542.73 1094.3 542.73 1124.82 603.39"/><path class="cls-7" d="m1124.82,603.39l-46.37,116.29-8.67-1.36,42.2-114.71-22.39-39.97-54.05,18.49,58.38-39.38c.07,0,.16-.02.23,0,.05-.02.07-.02.12-.02h.02l30.52,60.66Z"/><path class="cls-21" d="m875.45,963.99c58.62-65.04,122.87-33.8,131.66-19.14,11.17,40.54-67.58,98.96-117.52,108.22-9.26,1.72-18.89-1.48-24.67-8.92-13.36-17.21-15.02-52.86,10.53-80.16Z"/><path class="cls-18" d="m889.6,1053.06c-4.32.8-8.73.53-12.79-.74-14.8-18.7,109.22-130.76,130.29-107.47,11.17,40.54-67.58,98.96-117.5,108.21Z"/><polygon class="cls-7" points="1204 538.13 1185.37 551.84 1170.57 585.87 1155.33 552.3 1133.58 537.14 1155.03 525.26 1171.41 492.23 1184.65 525.4 1204 538.13"/><polygon class="cls-10" points="1001.05 698.57 1006.18 713.49 1103.56 733.15 1112.11 721.99 1001.05 698.57"/><path class="cls-7" d="m651.43,177.2l-38.95,15.57c-36.19-49.76-175.47-76.6-318.51-50.9,120.38-48.96,316.89-29.55,357.46,35.33Z"/></g></g></g></svg>